<svg xmlns="http://www.w3.org/2000/svg" width="34" height="47" viewBox="0 0 34 47">
    <defs>
        <linearGradient id="431p6kwpia" x1="68.817%" x2="28.509%" y1="13.307%" y2="89.598%">
            <stop offset="0%" stop-color="#4CACC6"/>
            <stop offset="100%" stop-color="#3587AA"/>
        </linearGradient>
    </defs>
    <g fill="none" fill-rule="evenodd">
        <g fill="url(#431p6kwpia)" transform="translate(-961 -603)">
            <g>
                <g>
                    <path d="M17 18.979c-1.427 0-2.59-1.17-2.59-2.608 0-1.438 1.163-2.608 2.59-2.608 1.428 0 2.59 1.17 2.59 2.608 0 1.438-1.162 2.608-2.59 2.608zm0-9.851c-3.966 0-7.192 3.25-7.192 7.243 0 3.994 3.226 7.243 7.193 7.243 3.966 0 7.19-3.25 7.19-7.243 0-3.994-3.224-7.243-7.19-7.243zm13.756 12.58l-2.193-.705c-.379 1.127-.917 2.19-1.655 3.244L17 39.722 7.03 24.157c-.448-.639-1.19-2.223-1.605-3.188-.264-1.098-.64-2.984-.64-3.902 0-6.783 5.48-12.303 12.215-12.303 6.734 0 12.213 5.52 12.213 12.303 0 1.314-.215 2.627-.64 3.905l2.182.736zM17.001.129C7.728.13.183 7.727.183 17.067c0 1.857.738 4.869.822 5.206.029.117.067.231.114.342.124.294 1.24 2.917 2.1 4.136l11.847 18.503c.424.662 1.152 1.062 1.935 1.062.782 0 1.51-.4 1.934-1.062l11.784-18.411c.941-1.337 1.683-2.803 2.185-4.303l.015-.037.02-.058c.582-1.753.878-3.563.878-5.378C33.817 7.727 26.273.129 17 .129z" transform="translate(916 555) translate(45 48.343)"/>
                </g>
            </g>
        </g>
    </g>
</svg>
