<svg xmlns="http://www.w3.org/2000/svg" width="135" height="49" viewBox="0 0 135 49">
    <g fill="none" fill-rule="evenodd">
        <g>
            <path fill="#FFF" d="M0 0H1440V11676H0z" transform="translate(-614 -6070)"/>
            <g fill-rule="nonzero">
                <g>
                    <path fill="#FFB71B" d="M11.847 0L6.95 0 9.398 3.386z" transform="translate(-614 -6070) translate(149 5643) translate(465 427)"/>
                    <path fill="#222327" d="M117.044 35.62l3.599-2.468c1.008 1.335 3.512 3.819 7.494 1.582 3.647-2.377 2.49-5.946.967-7.066-1.746-1.374-6.956-4.393-8.461-5.81-3.776-4.114-.519-8.918.583-9.98 1.933-1.868 4.015-2.627 7.24-2.216 2.635.522 4.304 1.582 5.822 3.633l-3.602 2.398c-.806-1.063-1.45-1.756-2.871-2.003-.964-.165-1.957.043-2.768.583-.785.498-1.314 1.306-1.45 2.215-.26 1.683.19 2.76 1.212 3.44 1.856 1.395 3.734 2.126 8.216 5.657 1.84 1.46 2.275 4.507 1.643 7.114-.383 2.532-3.824 7.148-10.426 6.82-2.852-.25-5.465-1.668-7.198-3.906v.007zM47.74 18.652h4.42v20.87h-4.42v-20.87zm-35.932 20.87L.644 10.197h4.563l8.496 22.081 6.934-22.081h4.858l6.93 22.075 8.455-22.075h4.691l-11.25 29.325h-3.932l-7.346-23.079-7.3 23.079h-3.935zm88.643-25.664c-2.504-.036-4.917.922-6.692 2.658-1.816 1.617-2.836 3.922-2.8 6.329v3.987c-.036 2.432.982 4.764 2.8 6.414 1.803 1.698 4.21 2.636 6.708 2.614 2.495.046 4.9-.913 6.657-2.655 1.803-1.642 2.814-3.957 2.783-6.373v-3.996c.035-2.407-.984-4.712-2.8-6.33-1.757-1.738-4.162-2.695-6.656-2.648zm5.874 24.765c-1.874.699-3.864 1.048-5.868 1.031-3.593.067-7.085-1.172-9.804-3.48-2.643-2.409-4.127-5.801-4.085-9.342v-3.996c0-7.279 6.23-13.177 13.883-13.177 7.713 0 13.88 5.85 13.88 13.177v13.126c0 3.348-1.372 6.31-4.066 8.86-2.602 2.547-6.14 3.954-9.814 3.905-4.401 0-7.527-1.554-10.481-4.563l3.112-2.953c2.12 2.174 4.189 3.317 7.369 3.317 2.496.044 4.903-.916 6.66-2.658 1.733-1.583 2.648-3.39 2.78-5.399-1.051.917-2.258 1.645-3.566 2.152zm-58.592-26.29c-.03-.886.49-1.701 1.316-2.06.825-.36 1.79-.19 2.437.426.648.617.85 1.559.51 2.38-.34.82-1.153 1.357-2.056 1.355-1.201.02-2.192-.92-2.213-2.101h.006zm31.28 10.503c.032-2.407-.987-4.711-2.8-6.33-1.758-1.736-4.161-2.693-6.654-2.648-5.249 0-9.46 4.003-9.46 8.98v16.684h-4.42V22.836c0-7.279 6.228-13.177 13.88-13.177 3.666-.064 7.205 1.326 9.814 3.857 2.637 2.402 4.118 5.787 4.076 9.32v16.686h-4.43l-.007-16.686zM4.756 1.753h1.288v5.183H4.756v-.56c-.437.424-1.024.665-1.637.674-.748.015-1.468-.282-1.982-.816C.613 5.723.32 5.026.322 4.3c-.021-.747.295-1.465.864-1.961.505-.462 1.172-.713 1.862-.7.358-.002.712.065 1.044.196.262.119.49.3.664.526v-.608zM1.61 4.345c-.011.404.167.791.483 1.05.307.276.712.425 1.128.415.42.007.828-.147 1.134-.43.36-.31.538-.776.473-1.24-.065-.466-.364-.868-.795-1.07-.25-.13-.53-.195-.812-.19-.415-.005-.817.144-1.125.417-.312.261-.49.645-.486 1.048zm9.17 2.617l-1.399-1.69-1.185 1.69H6.695l2.02-2.655-1.913-2.532h1.453l1.147 1.582 1.147-1.582h1.443L10.04 4.307l2.271 2.655h-1.53zm6.795-2.215h-3.867c.008.372.178.724.468.965.312.227.697.34 1.085.316.48.033.955-.123 1.318-.433l.49.927c-.445.345-1.112.516-1.994.516-.738.046-1.461-.21-1.998-.71-.484-.514-.737-1.198-.702-1.898-.023-.716.244-1.412.74-1.936.5-.54 1.215-.837 1.956-.814.681-.03 1.348.197 1.866.633.497.448.768 1.088.74 1.75-.009.23-.043.46-.102.684zm-3.831-.928h2.664c-.088-.759-.527-1.139-1.317-1.139-.722 0-1.173.38-1.347 1.14zm4.51 2.804l.432-.965c.367.284.822.436 1.29.43.495 0 .74-.17.74-.506-.01-.253-.156-.482-.383-.601-.226-.125-.462-.23-.706-.317-.939-.369-1.407-.888-1.405-1.557-.016-.447.216-.867.606-1.098.395-.227.848-.337 1.305-.316.552-.003 1.098.121 1.592.364l-.368.95c-.327-.258-.738-.39-1.156-.374-.442 0-.66.168-.66.503 0 .177.15.348.46.506.224.107.454.2.69.282.895.34 1.343.867 1.343 1.582.024.486-.223.947-.644 1.203-.434.246-.93.366-1.431.344-.301.007-.602-.024-.896-.091-.284-.087-.56-.2-.821-.339h.013zm4.34 0l.448-.965c.368.283.822.435 1.29.43.492 0 .74-.17.74-.506-.011-.253-.157-.48-.383-.601-.227-.124-.464-.23-.709-.317-.934-.37-1.405-.889-1.405-1.557-.017-.447.215-.867.606-1.098.39-.223.837-.333 1.289-.316.559-.006 1.11.119 1.61.364l-.367.95c-.331-.246-.742-.367-1.156-.343-.442 0-.664.168-.664.504 0 .177.155.348.464.506.224.106.455.2.69.282.895.34 1.343.867 1.343 1.582.022.486-.224.945-.644 1.202-.435.246-.933.366-1.434.345-.304-.004-.606-.045-.899-.123-.283-.087-.557-.2-.818-.339z" transform="translate(-614 -6070) translate(149 5643) translate(465 427)"/>
                </g>
            </g>
        </g>
    </g>
</svg>
