<svg xmlns="http://www.w3.org/2000/svg" width="150" height="55" viewBox="0 0 150 55">
    <g fill="none" fill-rule="evenodd">
        <g fill="#FFF" fill-rule="nonzero">
            <g>
                <path d="M13.163 0L7.722 0 10.443 3.831zM130.049 39.297l3.999-2.792c1.12 1.51 3.902 4.32 8.327 1.79 4.052-2.689 2.767-6.727 1.074-7.994-1.94-1.554-7.73-4.97-9.401-6.573-4.196-4.654-.577-10.088.648-11.291 2.148-2.112 4.46-2.972 8.044-2.506 2.928.59 4.783 1.79 6.469 4.11l-4.003 2.713c-.895-1.203-1.61-1.987-3.19-2.266-1.071-.187-2.174.049-3.074.659-.873.564-1.46 1.477-1.611 2.506-.29 1.904.21 3.121 1.346 3.891 2.062 1.579 4.149 2.406 9.128 6.401 2.045 1.65 2.528 5.098 1.826 8.048-.426 2.864-4.25 8.087-11.584 7.715-3.169-.283-6.072-1.886-7.998-4.418v.007zM53.044 20.101h4.912v23.61h-4.912v-23.61zm-39.923 23.61L.716 10.536h5.07l9.44 24.98 7.704-24.98h5.398l7.7 24.974 9.394-24.974h5.213L38.134 43.71h-4.368l-8.162-26.108-8.112 26.108H13.12zm98.491-29.033c-2.782-.041-5.464 1.043-7.435 3.007-2.018 1.829-3.151 4.437-3.111 7.16v4.51c-.04 2.751 1.09 5.39 3.11 7.257 2.004 1.92 4.679 2.982 7.454 2.957 2.772.052 5.445-1.033 7.396-3.003 2.004-1.858 3.128-4.478 3.093-7.21v-4.522c.04-2.722-1.094-5.33-3.11-7.16-1.953-1.967-4.626-3.05-7.397-2.996zm6.526 28.017c-2.081.79-4.292 1.186-6.519 1.167-3.992.075-7.872-1.327-10.893-3.938-2.937-2.725-4.586-6.563-4.54-10.568v-4.522c0-8.234 6.924-14.907 15.426-14.907 8.57 0 15.423 6.62 15.423 14.907v14.85c0 3.787-1.525 7.138-4.518 10.024-2.892 2.88-6.823 4.473-10.905 4.417-4.89 0-8.363-1.757-11.645-5.162l3.458-3.34c2.355 2.46 4.654 3.752 8.187 3.752 2.774.05 5.448-1.036 7.4-3.007 1.926-1.79 2.943-3.835 3.09-6.108-1.169 1.038-2.51 1.862-3.964 2.435zM53.037 12.952c-.034-1.002.545-1.924 1.461-2.33.917-.407 1.989-.216 2.709.482s.944 1.763.566 2.692c-.377.929-1.281 1.536-2.284 1.533-1.335.022-2.436-1.042-2.46-2.377h.008zm34.754 11.882c.037-2.722-1.096-5.33-3.11-7.16-1.953-1.965-4.624-3.047-7.393-2.996-5.832 0-10.511 4.528-10.511 10.16V43.71h-4.912V24.834c0-8.234 6.92-14.907 15.423-14.907 4.074-.072 8.005 1.501 10.904 4.364 2.93 2.717 4.576 6.547 4.529 10.543v18.877h-4.923l-.007-18.877z" transform="translate(-149 -45) translate(149 45)"/>
                <path d="M5.284 1.983h1.432v5.864H5.284v-.633c-.485.479-1.137.752-1.819.762-.831.017-1.63-.319-2.201-.923C.68 6.474.354 5.686.358 4.865c-.024-.845.328-1.657.96-2.22.56-.522 1.302-.805 2.069-.79.397-.003.791.072 1.16.221.29.134.544.338.737.595v-.688zM1.79 4.915c-.013.458.185.896.537 1.189.341.312.79.48 1.253.469.467.008.92-.166 1.26-.487.4-.35.598-.877.526-1.403-.073-.527-.405-.981-.884-1.21-.278-.147-.588-.22-.902-.215-.461-.006-.907.163-1.25.472-.347.295-.545.73-.54 1.185zm10.189 2.96l-1.554-1.91-1.318 1.91H7.44l2.245-3.003-2.127-2.864h1.615l1.274 1.79 1.275-1.79h1.604l-2.17 2.864 2.524 3.004h-1.7zm7.55-2.505h-4.296c.008.421.197.819.519 1.092.347.257.775.384 1.206.358.534.036 1.06-.14 1.464-.49l.545 1.048c-.494.39-1.235.584-2.216.584-.82.052-1.623-.238-2.22-.802-.537-.583-.819-1.356-.78-2.148-.025-.81.27-1.598.823-2.191.555-.61 1.349-.947 2.173-.92.757-.033 1.498.223 2.073.716.552.506.854 1.23.823 1.98-.01.26-.049.52-.114.773zM15.272 4.32h2.96c-.097-.86-.585-1.289-1.464-1.289-.801 0-1.303.43-1.496 1.289zm5.012 3.172l.48-1.092c.407.32.913.493 1.432.487.551 0 .823-.193.823-.573-.012-.286-.174-.545-.426-.68-.25-.141-.513-.26-.784-.358-1.043-.418-1.563-1.005-1.56-1.761-.02-.506.238-.982.672-1.243.439-.257.942-.381 1.45-.358.614-.003 1.22.138 1.769.412l-.408 1.074c-.364-.291-.82-.441-1.286-.422-.49 0-.734.19-.734.569 0 .2.169.394.512.573.25.12.505.226.766.318.996.384 1.493.981 1.493 1.79.027.55-.247 1.07-.716 1.36-.482.28-1.033.415-1.59.39-.334.008-.668-.027-.994-.103-.316-.098-.622-.226-.913-.383h.014zm4.822 0l.498-1.092c.408.32.913.492 1.432.487.548 0 .823-.193.823-.573-.013-.286-.174-.544-.426-.68-.252-.14-.516-.26-.787-.358-1.039-.419-1.561-1.006-1.561-1.761-.019-.506.239-.982.673-1.243.433-.253.93-.377 1.432-.358.62-.006 1.234.135 1.79.412l-.408 1.074c-.37-.278-.825-.415-1.286-.387-.49 0-.737.19-.737.57 0 .2.172.393.515.572.25.12.506.227.767.319.995.384 1.492.98 1.492 1.79.025.55-.249 1.07-.716 1.36-.483.279-1.035.414-1.593.39-.337-.004-.673-.05-.998-.14-.315-.098-.62-.226-.91-.382z" transform="translate(-149 -45) translate(149 45)"/>
            </g>
        </g>
    </g>
</svg>
