<svg xmlns="http://www.w3.org/2000/svg" width="38" height="22" viewBox="0 0 38 22">
    <g fill="none" fill-rule="evenodd">
        <g fill-rule="nonzero">
            <g>
                <g>
                    <g transform="translate(-1030 -844) translate(0 112) translate(764.5 580) translate(266 152)">
                        <ellipse cx="25.879" cy="10.951" fill="#FFC107" rx="10.953" ry="10.784"/>
                        <path fill="#FF3D00" d="M17.232 17.384c-.577-.757-.961-1.325-1.345-2.082h5.764c.385-.756.577-1.324.769-2.08h-7.302c-.192-.758-.192-1.514-.192-2.082h7.686c0-.757 0-1.514-.192-2.081h-7.302c.192-1.135.384-1.892.769-2.46h5.764c-.384-.757-.768-1.513-1.345-2.08H17.04c.384-.569.96-1.136 1.537-1.704-1.922-1.703-4.612-2.649-7.11-2.649C5.317.166.514 5.086.514 10.951S5.51 21.735 11.467 21.735c3.651 0 6.726-1.703 8.84-4.351h-3.075z"/>
                    </g>
                </g>
            </g>
        </g>
    </g>
</svg>
